<svg xmlns="http://www.w3.org/2000/svg" version="1.1" xmlns:xlink="http://www.w3.org/1999/xlink" xmlns:svgjs="http://svgjs.dev/svgjs" width="2000" height="313" viewBox="0 0 2000 313"><g transform="matrix(1,0,0,1,-1.2158218172888837,0.5002627991277109)"><svg viewBox="0 0 396 62" data-background-color="#ececea" preserveAspectRatio="xMidYMid meet" height="313" width="2000" xmlns="http://www.w3.org/2000/svg" xmlns:xlink="http://www.w3.org/1999/xlink"><g id="tight-bounds" transform="matrix(1,0,0,1,0.24073271982319966,-0.0990935896035694)"><svg viewBox="0 0 395.52 62.19818717920715" height="62.19818717920715" width="395.52"><g><svg viewBox="0 0 395.52 62.19818717920715" height="62.19818717920715" width="395.52"><g><svg viewBox="0 0 395.52 62.19818717920715" height="62.19818717920715" width="395.52"><g id="textblocktransform"><svg viewBox="0 0 395.52 62.19818717920715" height="62.19818717920715" width="395.52" id="textblock"><g><svg viewBox="0 0 395.52 62.19818717920715" height="62.19818717920715" width="395.52"><g transform="matrix(1,0,0,1,0,0)"><svg width="395.52" viewBox="0.27777755557 -35.5 229.02722244443 36" height="62.19818717920715" data-palette-color="#10b981"><path d="M12.55 0.5L12.55 0.5Q10.15 0.5 7.8-0.18 5.45-0.85 3.63-2.25 1.8-3.65 0.9-5.7 0-7.75 0.4-10.55L0.4-10.55Q0.5-11 0.83-11.33 1.15-11.65 1.65-11.65L1.65-11.65 6.45-11.65Q7.1-11.65 7.38-11.3 7.65-10.95 7.7-10.35L7.7-10.35Q7.5-7.65 8.9-6.45 10.3-5.25 12.95-5.25L12.95-5.25Q16.45-5.25 18.48-7.3 20.5-9.35 21.25-13L21.25-13 24.7-29.1 7.7-29.1Q7.2-29.1 6.93-29.45 6.65-29.8 6.75-30.3L6.75-30.3 7.55-33.8Q7.65-34.3 8.05-34.65 8.45-35 8.95-35L8.95-35 31.85-35Q32.4-35 32.65-34.65 32.9-34.3 32.8-33.75L32.8-33.75 28.35-12.8Q27.5-8.65 25.58-5.65 23.65-2.65 20.45-1.07 17.25 0.5 12.55 0.5ZM35.7 0L31.1 0Q30.45 0 30.22-0.5 30-1 30.3-1.5L30.3-1.5 49.2-33.75Q49.5-34.25 49.97-34.63 50.45-35 51.2-35L51.2-35 57-35Q57.75-35 58.1-34.63 58.45-34.25 58.5-33.75L58.5-33.75 63.7-1.5Q63.8-0.8 63.47-0.4 63.15 0 62.6 0L62.6 0 58.35 0Q57.7 0 57.37-0.33 57.05-0.65 56.95-1.15L56.95-1.15 55.85-7.05 41-7.05 37.35-0.95Q37.1-0.6 36.7-0.3 36.3 0 35.7 0L35.7 0ZM52.95-28.25L43.95-12.8 55.35-12.8 52.95-28.25ZM82.84 0L78.4 0Q77.84 0 77.57-0.35 77.3-0.7 77.4-1.2L77.4-1.2 79.75-12.5 72.4-33.4Q72.2-33.95 72.57-34.48 72.95-35 73.59-35L73.59-35 77.75-35Q78.34-35 78.65-34.7 78.95-34.4 79.09-34.05L79.09-34.05 84.34-19.55 95.8-34.05Q96.05-34.4 96.47-34.7 96.9-35 97.5-35L97.5-35 102.45-35Q103.25-35 103.32-34.45 103.4-33.9 103-33.4L103-33.4 86.75-12.5 84.3-1.2Q84.2-0.7 83.8-0.35 83.4 0 82.84 0L82.84 0ZM125.34 0.5L125.34 0.5Q120.69 0.5 117.74-0.85 114.79-2.2 113.47-4.42 112.14-6.65 112.54-9.15L112.54-9.15Q112.59-9.6 112.92-9.9 113.24-10.2 113.69-10.2L113.69-10.2 118.29-10.2Q118.89-10.2 119.17-9.93 119.44-9.65 119.59-9.25L119.59-9.25Q119.74-8.3 120.39-7.38 121.04-6.45 122.37-5.85 123.69-5.25 125.79-5.25L125.79-5.25Q129.39-5.25 131.49-6.45 133.59-7.65 134.04-9.7L134.04-9.7Q134.34-11.15 133.59-12.03 132.84-12.9 130.99-13.63 129.14-14.35 126.09-15.15L126.09-15.15Q122.59-16.05 120.34-17.45 118.09-18.85 117.27-20.95 116.44-23.05 117.09-26L117.09-26Q117.99-30.35 121.72-32.93 125.44-35.5 131.49-35.5L131.49-35.5Q134.64-35.5 136.99-34.63 139.34-33.75 140.89-32.33 142.44-30.9 143.09-29.28 143.74-27.65 143.49-26.1L143.49-26.1Q143.44-25.7 143.14-25.38 142.84-25.05 142.34-25.05L142.34-25.05 137.59-25.05Q137.14-25.05 136.79-25.25 136.44-25.45 136.29-26L136.29-26Q136.34-27.55 134.92-28.65 133.49-29.75 131.09-29.75L131.09-29.75Q128.39-29.75 126.47-28.75 124.54-27.75 124.04-25.65L124.04-25.65Q123.79-24.25 124.39-23.33 124.99-22.4 126.64-21.7 128.29-21 131.19-20.2L131.19-20.2Q135.29-19.25 137.67-17.88 140.04-16.5 140.89-14.45 141.74-12.4 141.09-9.45L141.09-9.45Q140.09-4.55 136.04-2.02 131.99 0.5 125.34 0.5ZM158.74 0.5L158.74 0.5Q155.69 0.5 153.14-0.33 150.59-1.15 148.89-2.85 147.19-4.55 146.51-7.13 145.84-9.7 146.44-13.2L146.44-13.2Q146.79-15.35 147.26-17.45 147.74-19.55 148.24-21.75L148.24-21.75Q149.89-28.55 154.14-32.02 158.39-35.5 165.19-35.5L165.19-35.5Q168.29-35.5 170.81-34.63 173.34-33.75 175.04-32.02 176.74-30.3 177.41-27.73 178.09-25.15 177.49-21.75L177.49-21.75Q177.14-19.55 176.66-17.45 176.19-15.35 175.69-13.2L175.69-13.2Q173.99-6.25 169.74-2.88 165.49 0.5 158.74 0.5ZM159.19-5.25L159.19-5.25Q162.49-5.25 165.01-7.18 167.54-9.1 168.59-13.45L168.59-13.45Q169.14-15.65 169.54-17.53 169.94-19.4 170.29-21.55L170.29-21.55Q171.09-25.9 169.61-27.83 168.14-29.75 164.74-29.75L164.74-29.75Q161.39-29.75 158.91-27.83 156.44-25.9 155.39-21.55L155.39-21.55Q154.84-19.4 154.44-17.53 154.04-15.65 153.64-13.45L153.64-13.45Q152.89-9.1 154.31-7.18 155.74-5.25 159.19-5.25ZM185.04 0L180.79 0Q180.24 0 179.96-0.35 179.69-0.7 179.79-1.2L179.79-1.2 186.74-33.75Q186.84-34.3 187.24-34.65 187.64-35 188.14-35L188.14-35 191.94-35Q192.64-35 192.91-34.7 193.19-34.4 193.24-34.2L193.24-34.2 202.94-11.6 207.69-33.75Q207.79-34.3 208.19-34.65 208.59-35 209.14-35L209.14-35 213.34-35Q213.89-35 214.14-34.65 214.39-34.3 214.29-33.75L214.29-33.75 207.39-1.25Q207.29-0.7 206.89-0.35 206.49 0 205.94 0L205.94 0 202.14 0Q201.44 0 201.19-0.3 200.94-0.6 200.84-0.8L200.84-0.8 191.09-22.9 186.49-1.2Q186.39-0.7 185.99-0.35 185.59 0 185.04 0L185.04 0ZM220.88 0L216.13 0Q215.63 0 215.36-0.35 215.08-0.7 215.18-1.2L215.18-1.2 222.13-33.8Q222.23-34.3 222.63-34.65 223.03-35 223.58-35L223.58-35 228.28-35Q228.78-35 229.08-34.65 229.38-34.3 229.28-33.8L229.28-33.8 222.28-1.2Q222.18-0.7 221.78-0.35 221.38 0 220.88 0L220.88 0Z" opacity="1" transform="matrix(1,0,0,1,0,0)" fill="#10b981" class="wordmark-text-0" data-fill-palette-color="primary" id="text-0"></path></svg></g></svg></g></svg></g></svg></g><g></g></svg></g><defs></defs></svg><rect width="395.52" height="62.19818717920715" fill="none" stroke="none" visibility="hidden"></rect></g></svg></g></svg>